<mxfile host="app.diagrams.net" modified="2021-09-05T14:30:39.674Z" agent="5.0 (Windows NT 10.0; Win64; x64) AppleWebKit/537.36 (KHTML, like Gecko) Chrome/92.0.4515.159 Safari/537.36 OPR/78.0.4093.184" etag="vTamlmp4mrOULm8aIKQH" version="15.0.6" type="github">
  <diagram name="Page-1" id="5987fedf-629e-85c4-6858-42fee31821dd">
    <mxGraphModel dx="1382" dy="764" grid="1" gridSize="10" guides="1" tooltips="1" connect="1" arrows="1" fold="1" page="1" pageScale="1.5" pageWidth="1169" pageHeight="826" background="none" math="0" shadow="0">
      <root>
        <mxCell id="0" style=";html=1;" />
        <mxCell id="1" style=";html=1;" parent="0" />
        <mxCell id="2a5a01dd2e413fbf-1" value="" style="ellipse;whiteSpace=wrap;html=1;rounded=0;shadow=0;strokeWidth=1;fillColor=#dae8fc;fontSize=24;align=right;strokeColor=#6c8ebf;opacity=50;" parent="1" vertex="1">
          <mxGeometry x="312" y="359" width="500" height="230" as="geometry" />
        </mxCell>
        <mxCell id="2a5a01dd2e413fbf-2" value="" style="ellipse;whiteSpace=wrap;html=1;rounded=0;shadow=0;strokeWidth=1;fillColor=#d5e8d4;fontSize=24;align=right;strokeColor=#82b366;opacity=50;" parent="1" vertex="1">
          <mxGeometry x="212" y="439" width="330" height="490" as="geometry" />
        </mxCell>
        <mxCell id="2a5a01dd2e413fbf-3" value="" style="ellipse;whiteSpace=wrap;html=1;rounded=0;shadow=0;strokeWidth=1;fillColor=#ffe6cc;fontSize=24;align=right;strokeColor=#d79b00;opacity=50;" parent="1" vertex="1">
          <mxGeometry x="332" y="789" width="380" height="191" as="geometry" />
        </mxCell>
        <mxCell id="2a5a01dd2e413fbf-7" value="" style="ellipse;whiteSpace=wrap;html=1;rounded=0;shadow=0;strokeWidth=1;fillColor=#d5e8d4;fontSize=24;align=right;strokeColor=#82b366;opacity=50;" parent="1" vertex="1">
          <mxGeometry x="1217" y="539" width="350" height="390" as="geometry" />
        </mxCell>
        <mxCell id="2a5a01dd2e413fbf-8" value="" style="ellipse;whiteSpace=wrap;html=1;rounded=0;shadow=0;strokeWidth=1;fillColor=#ffe6cc;fontSize=24;align=right;strokeColor=#d79b00;opacity=50;" parent="1" vertex="1">
          <mxGeometry x="997" y="409" width="380" height="370" as="geometry" />
        </mxCell>
        <mxCell id="2a5a01dd2e413fbf-9" value="" style="ellipse;whiteSpace=wrap;html=1;rounded=0;shadow=0;strokeWidth=1;fillColor=#fff2cc;fontSize=24;align=right;strokeColor=#d6b656;opacity=50;" parent="1" vertex="1">
          <mxGeometry x="1227" y="269" width="340" height="360" as="geometry" />
        </mxCell>
        <mxCell id="2a5a01dd2e413fbf-43" style="edgeStyle=none;curved=1;html=1;endArrow=none;endFill=0;strokeColor=#0066CC;strokeWidth=4;fontSize=24;dashed=1;dashPattern=1 1;" parent="1" source="2a5a01dd2e413fbf-11" target="2a5a01dd2e413fbf-13" edge="1">
          <mxGeometry relative="1" as="geometry">
            <Array as="points">
              <mxPoint x="442" y="519" />
            </Array>
          </mxGeometry>
        </mxCell>
        <mxCell id="2a5a01dd2e413fbf-11" value="" style="whiteSpace=wrap;html=1;rounded=0;shadow=0;strokeWidth=1;fillColor=#FF6666;fontSize=24;align=right;strokeColor=#b85450;" parent="1" vertex="1">
          <mxGeometry x="562" y="449" width="20" height="20" as="geometry" />
        </mxCell>
        <mxCell id="2a5a01dd2e413fbf-12" value="" style="whiteSpace=wrap;html=1;rounded=0;shadow=0;strokeWidth=1;fillColor=#FF6666;fontSize=24;align=right;strokeColor=#b85450;" parent="1" vertex="1">
          <mxGeometry x="412" y="489" width="20" height="20" as="geometry" />
        </mxCell>
        <mxCell id="2a5a01dd2e413fbf-44" style="edgeStyle=none;curved=1;html=1;endArrow=none;endFill=0;strokeColor=#0066CC;strokeWidth=4;fontSize=24;dashed=1;dashPattern=1 1;" parent="1" source="2a5a01dd2e413fbf-13" target="2a5a01dd2e413fbf-15" edge="1">
          <mxGeometry relative="1" as="geometry">
            <Array as="points">
              <mxPoint x="502" y="739" />
            </Array>
          </mxGeometry>
        </mxCell>
        <mxCell id="2a5a01dd2e413fbf-13" value="" style="whiteSpace=wrap;html=1;rounded=0;shadow=0;strokeWidth=1;fillColor=#FF6666;fontSize=24;align=right;strokeColor=#b85450;" parent="1" vertex="1">
          <mxGeometry x="352" y="619" width="20" height="20" as="geometry" />
        </mxCell>
        <mxCell id="2a5a01dd2e413fbf-14" value="" style="whiteSpace=wrap;html=1;rounded=0;shadow=0;strokeWidth=1;fillColor=#FF6666;fontSize=24;align=right;strokeColor=#b85450;" parent="1" vertex="1">
          <mxGeometry x="402" y="849" width="20" height="20" as="geometry" />
        </mxCell>
        <mxCell id="2a5a01dd2e413fbf-15" value="" style="whiteSpace=wrap;html=1;rounded=0;shadow=0;strokeWidth=1;fillColor=#FF6666;fontSize=24;align=right;strokeColor=#b85450;" parent="1" vertex="1">
          <mxGeometry x="542" y="889" width="20" height="20" as="geometry" />
        </mxCell>
        <mxCell id="2a5a01dd2e413fbf-37" style="edgeStyle=none;curved=1;html=1;endArrow=none;endFill=0;strokeColor=#FF0000;strokeWidth=4;fontSize=24;dashed=1;" parent="1" source="2a5a01dd2e413fbf-21" target="2a5a01dd2e413fbf-23" edge="1">
          <mxGeometry relative="1" as="geometry">
            <Array as="points">
              <mxPoint x="1422" y="649" />
            </Array>
          </mxGeometry>
        </mxCell>
        <mxCell id="2a5a01dd2e413fbf-21" value="" style="whiteSpace=wrap;html=1;rounded=0;shadow=0;strokeWidth=1;fillColor=#FF6666;fontSize=24;align=right;strokeColor=#b85450;" parent="1" vertex="1">
          <mxGeometry x="1397" y="734" width="20" height="20" as="geometry" />
        </mxCell>
        <mxCell id="2a5a01dd2e413fbf-22" value="" style="whiteSpace=wrap;html=1;rounded=0;shadow=0;strokeWidth=1;fillColor=#FF6666;fontSize=24;align=right;strokeColor=#b85450;" parent="1" vertex="1">
          <mxGeometry x="1272" y="674" width="20" height="20" as="geometry" />
        </mxCell>
        <mxCell id="2a5a01dd2e413fbf-40" style="edgeStyle=none;curved=1;html=1;entryX=0.5;entryY=0;endArrow=none;endFill=0;strokeColor=#0066CC;strokeWidth=4;fontSize=24;dashed=1;dashPattern=1 1;" parent="1" source="2a5a01dd2e413fbf-23" target="2a5a01dd2e413fbf-22" edge="1">
          <mxGeometry relative="1" as="geometry">
            <Array as="points">
              <mxPoint x="1282" y="629" />
            </Array>
          </mxGeometry>
        </mxCell>
        <mxCell id="2a5a01dd2e413fbf-41" style="edgeStyle=none;curved=1;html=1;endArrow=none;endFill=0;strokeColor=#0066CC;strokeWidth=4;fontSize=24;dashed=1;dashPattern=1 1;" parent="1" source="2a5a01dd2e413fbf-23" target="2a5a01dd2e413fbf-24" edge="1">
          <mxGeometry relative="1" as="geometry">
            <Array as="points">
              <mxPoint x="1382" y="569" />
            </Array>
          </mxGeometry>
        </mxCell>
        <mxCell id="2a5a01dd2e413fbf-23" value="" style="whiteSpace=wrap;html=1;rounded=0;shadow=0;strokeWidth=1;fillColor=#FF6666;fontSize=24;align=right;strokeColor=#b85450;" parent="1" vertex="1">
          <mxGeometry x="1332" y="574" width="20" height="20" as="geometry" />
        </mxCell>
        <mxCell id="2a5a01dd2e413fbf-24" value="" style="whiteSpace=wrap;html=1;rounded=0;shadow=0;strokeWidth=1;fillColor=#FF6666;fontSize=24;align=right;strokeColor=#b85450;" parent="1" vertex="1">
          <mxGeometry x="1417" y="574" width="20" height="20" as="geometry" />
        </mxCell>
        <mxCell id="2a5a01dd2e413fbf-25" value="" style="whiteSpace=wrap;html=1;rounded=0;shadow=0;strokeWidth=1;fillColor=#FF6666;fontSize=24;align=right;strokeColor=#b85450;" parent="1" vertex="1">
          <mxGeometry x="1282" y="489" width="20" height="20" as="geometry" />
        </mxCell>
        <mxCell id="2a5a01dd2e413fbf-26" value="" style="whiteSpace=wrap;html=1;rounded=0;shadow=0;strokeWidth=1;fillColor=#FF6666;fontSize=24;align=right;strokeColor=#b85450;" parent="1" vertex="1">
          <mxGeometry x="1367" y="369" width="20" height="20" as="geometry" />
        </mxCell>
        <mxCell id="2a5a01dd2e413fbf-27" value="" style="whiteSpace=wrap;html=1;rounded=0;shadow=0;strokeWidth=1;fillColor=#FF6666;fontSize=24;align=right;strokeColor=#b85450;" parent="1" vertex="1">
          <mxGeometry x="1132" y="584" width="20" height="20" as="geometry" />
        </mxCell>
        <mxCell id="2a5a01dd2e413fbf-29" value="" style="curved=1;endArrow=none;html=1;fontSize=24;fontColor=#000000;endFill=0;strokeWidth=4;strokeColor=#00CC00;entryX=0;entryY=0.25;entryDx=0;entryDy=0;" parent="1" source="2a5a01dd2e413fbf-11" target="2a5a01dd2e413fbf-27" edge="1">
          <mxGeometry width="50" height="50" relative="1" as="geometry">
            <mxPoint x="772" y="759" as="sourcePoint" />
            <mxPoint x="860" y="740" as="targetPoint" />
            <Array as="points">
              <mxPoint x="572" y="580" />
              <mxPoint x="830" y="680" />
            </Array>
          </mxGeometry>
        </mxCell>
        <mxCell id="2a5a01dd2e413fbf-48" value="&lt;b&gt;sense&lt;/b&gt;&lt;br&gt;&lt;i&gt;(noun)&lt;/i&gt;" style="text;html=1;strokeColor=none;fillColor=none;align=center;verticalAlign=middle;whiteSpace=wrap;rounded=0;shadow=0;fontSize=20;" parent="1" vertex="1">
          <mxGeometry x="280" y="649" width="80" height="30" as="geometry" />
        </mxCell>
        <mxCell id="2a5a01dd2e413fbf-54" value="Sense-?" style="text;html=1;strokeColor=none;fillColor=none;align=center;verticalAlign=middle;whiteSpace=wrap;rounded=0;shadow=0;fontSize=20;" parent="1" vertex="1">
          <mxGeometry x="1090" y="539" width="80" height="30" as="geometry" />
        </mxCell>
        <mxCell id="2a5a01dd2e413fbf-55" value="Sensemaking&lt;br&gt;&lt;i&gt;(noun)&lt;/i&gt;" style="text;html=1;strokeColor=none;fillColor=none;align=center;verticalAlign=middle;whiteSpace=wrap;rounded=0;shadow=0;fontSize=20;" parent="1" vertex="1">
          <mxGeometry x="1387" y="339" width="80" height="30" as="geometry" />
        </mxCell>
        <mxCell id="wo1f8UBgWE2wPwF6SzrK-1" value="&lt;b&gt;perception&lt;/b&gt;&lt;br&gt;&lt;i&gt;(noun)&lt;/i&gt;" style="text;html=1;strokeColor=none;fillColor=none;align=center;verticalAlign=middle;whiteSpace=wrap;rounded=0;shadow=0;fontSize=20;" vertex="1" parent="1">
          <mxGeometry x="482" y="419" width="80" height="30" as="geometry" />
        </mxCell>
        <mxCell id="wo1f8UBgWE2wPwF6SzrK-2" value="&lt;b&gt;insight&lt;/b&gt;&lt;br&gt;&lt;i&gt;(noun)&lt;/i&gt;" style="text;html=1;strokeColor=none;fillColor=none;align=center;verticalAlign=middle;whiteSpace=wrap;rounded=0;shadow=0;fontSize=20;" vertex="1" parent="1">
          <mxGeometry x="532" y="920" width="80" height="30" as="geometry" />
        </mxCell>
        <mxCell id="wo1f8UBgWE2wPwF6SzrK-3" value="" style="ellipse;whiteSpace=wrap;html=1;rounded=0;shadow=0;strokeWidth=1;fillColor=#dae8fc;fontSize=24;align=right;strokeColor=#6c8ebf;opacity=50;" vertex="1" parent="1">
          <mxGeometry x="320" y="269" width="250" height="110" as="geometry" />
        </mxCell>
        <mxCell id="wo1f8UBgWE2wPwF6SzrK-4" value="" style="whiteSpace=wrap;html=1;rounded=0;shadow=0;strokeWidth=1;fillColor=#FF6666;fontSize=24;align=right;strokeColor=#b85450;" vertex="1" parent="1">
          <mxGeometry x="470" y="319" width="20" height="20" as="geometry" />
        </mxCell>
        <mxCell id="wo1f8UBgWE2wPwF6SzrK-5" value="&lt;b&gt;awareness&lt;/b&gt;&lt;br&gt;&lt;i&gt;(noun)&lt;/i&gt;" style="text;html=1;strokeColor=none;fillColor=none;align=center;verticalAlign=middle;whiteSpace=wrap;rounded=0;shadow=0;fontSize=20;" vertex="1" parent="1">
          <mxGeometry x="392" y="298" width="80" height="30" as="geometry" />
        </mxCell>
        <mxCell id="wo1f8UBgWE2wPwF6SzrK-6" style="edgeStyle=none;curved=1;html=1;endArrow=none;endFill=0;strokeColor=#0066CC;strokeWidth=4;fontSize=24;dashed=1;dashPattern=1 1;exitX=1;exitY=0.5;exitDx=0;exitDy=0;" edge="1" parent="1" source="2a5a01dd2e413fbf-11" target="wo1f8UBgWE2wPwF6SzrK-4">
          <mxGeometry relative="1" as="geometry">
            <Array as="points">
              <mxPoint x="590" y="290" />
            </Array>
            <mxPoint x="811.9999999999998" y="122.30538461538475" as="sourcePoint" />
            <mxPoint x="619.2727272727273" y="277.69" as="targetPoint" />
          </mxGeometry>
        </mxCell>
        <mxCell id="wo1f8UBgWE2wPwF6SzrK-7" value="" style="ellipse;whiteSpace=wrap;html=1;rounded=0;shadow=0;strokeWidth=1;fillColor=#ffe6cc;fontSize=24;align=right;strokeColor=#d79b00;opacity=50;" vertex="1" parent="1">
          <mxGeometry x="351" y="970" width="258" height="131" as="geometry" />
        </mxCell>
        <mxCell id="wo1f8UBgWE2wPwF6SzrK-8" value="" style="whiteSpace=wrap;html=1;rounded=0;shadow=0;strokeWidth=1;fillColor=#FF6666;fontSize=24;align=right;strokeColor=#b85450;" vertex="1" parent="1">
          <mxGeometry x="489" y="1010" width="20" height="20" as="geometry" />
        </mxCell>
        <mxCell id="wo1f8UBgWE2wPwF6SzrK-9" value="&lt;b&gt;understanding&lt;/b&gt;&lt;br&gt;&lt;i&gt;(noun)&lt;/i&gt;" style="text;html=1;strokeColor=none;fillColor=none;align=center;verticalAlign=middle;whiteSpace=wrap;rounded=0;shadow=0;fontSize=20;" vertex="1" parent="1">
          <mxGeometry x="437" y="1041" width="80" height="30" as="geometry" />
        </mxCell>
        <mxCell id="wo1f8UBgWE2wPwF6SzrK-10" style="edgeStyle=none;curved=1;html=1;endArrow=none;endFill=0;strokeColor=#0066CC;strokeWidth=4;fontSize=24;dashed=1;dashPattern=1 1;exitX=0;exitY=0.5;exitDx=0;exitDy=0;" edge="1" parent="1" source="2a5a01dd2e413fbf-15" target="wo1f8UBgWE2wPwF6SzrK-8">
          <mxGeometry relative="1" as="geometry">
            <Array as="points">
              <mxPoint x="410" y="960" />
            </Array>
            <mxPoint x="401.13" y="1039.997142857143" as="sourcePoint" />
            <mxPoint x="578.005" y="1292.1399999999999" as="targetPoint" />
          </mxGeometry>
        </mxCell>
        <mxCell id="wo1f8UBgWE2wPwF6SzrK-11" value="" style="ellipse;whiteSpace=wrap;html=1;rounded=0;shadow=0;strokeWidth=1;fillColor=#dae8fc;fontSize=24;align=right;strokeColor=#6c8ebf;opacity=50;" vertex="1" parent="1">
          <mxGeometry x="590" y="259" width="210" height="130" as="geometry" />
        </mxCell>
        <mxCell id="wo1f8UBgWE2wPwF6SzrK-12" value="" style="whiteSpace=wrap;html=1;rounded=0;shadow=0;strokeWidth=1;fillColor=#FF6666;fontSize=24;align=right;strokeColor=#b85450;" vertex="1" parent="1">
          <mxGeometry x="625" y="296" width="20" height="20" as="geometry" />
        </mxCell>
        <mxCell id="wo1f8UBgWE2wPwF6SzrK-13" value="&lt;b&gt;mindfulness&lt;/b&gt;&lt;br&gt;&lt;i&gt;(noun)&lt;/i&gt;" style="text;html=1;strokeColor=none;fillColor=none;align=center;verticalAlign=middle;whiteSpace=wrap;rounded=0;shadow=0;fontSize=20;" vertex="1" parent="1">
          <mxGeometry x="680" y="318" width="80" height="30" as="geometry" />
        </mxCell>
        <mxCell id="wo1f8UBgWE2wPwF6SzrK-15" style="edgeStyle=none;curved=1;html=1;endArrow=none;endFill=0;strokeColor=#0066CC;strokeWidth=4;fontSize=24;dashed=1;dashPattern=1 1;exitX=0;exitY=0.4;exitDx=0;exitDy=0;entryX=0.5;entryY=0;entryDx=0;entryDy=0;exitPerimeter=0;" edge="1" parent="1" source="wo1f8UBgWE2wPwF6SzrK-12" target="wo1f8UBgWE2wPwF6SzrK-4">
          <mxGeometry relative="1" as="geometry">
            <Array as="points">
              <mxPoint x="560" y="230" />
            </Array>
            <mxPoint x="591.9999999999998" y="469" as="sourcePoint" />
            <mxPoint x="500" y="335.4545454545455" as="targetPoint" />
          </mxGeometry>
        </mxCell>
        <mxCell id="wo1f8UBgWE2wPwF6SzrK-16" value="" style="curved=1;endArrow=none;html=1;fontSize=24;fontColor=#000000;endFill=0;strokeWidth=4;strokeColor=#00CC00;entryX=0;entryY=0.5;entryDx=0;entryDy=0;" edge="1" parent="1" source="2a5a01dd2e413fbf-13" target="2a5a01dd2e413fbf-27">
          <mxGeometry width="50" height="50" relative="1" as="geometry">
            <mxPoint x="588.25" y="479.0000000000001" as="sourcePoint" />
            <mxPoint x="930" y="626" as="targetPoint" />
            <Array as="points">
              <mxPoint x="580" y="720" />
              <mxPoint x="910" y="720" />
            </Array>
          </mxGeometry>
        </mxCell>
        <mxCell id="wo1f8UBgWE2wPwF6SzrK-17" value="" style="curved=1;endArrow=none;html=1;fontSize=24;fontColor=#000000;endFill=0;strokeWidth=4;strokeColor=#00CC00;exitX=0;exitY=0.75;exitDx=0;exitDy=0;" edge="1" parent="1" source="2a5a01dd2e413fbf-27" target="2a5a01dd2e413fbf-15">
          <mxGeometry width="50" height="50" relative="1" as="geometry">
            <mxPoint x="850" y="610" as="sourcePoint" />
            <mxPoint x="579" y="909" as="targetPoint" />
            <Array as="points">
              <mxPoint x="970" y="780" />
              <mxPoint x="720" y="890" />
            </Array>
          </mxGeometry>
        </mxCell>
        <mxCell id="wo1f8UBgWE2wPwF6SzrK-19" value="Sensegiving&lt;br&gt;&lt;i&gt;(noun)&lt;/i&gt;" style="text;html=1;strokeColor=none;fillColor=none;align=center;verticalAlign=middle;whiteSpace=wrap;rounded=0;shadow=0;fontSize=20;" vertex="1" parent="1">
          <mxGeometry x="1397" y="779" width="80" height="30" as="geometry" />
        </mxCell>
      </root>
    </mxGraphModel>
  </diagram>
</mxfile>
